# xmcd
#
# Track frame offsets: 
#        150
#        18990
#        35780
#        53805
#        100522
#        129735
#        146030
#        168182
#
# Disc length: 2393 seconds
#
# Revision: 0
# Processed by: cddbd v1.4PL0 Copyright (c) Steve Scherf et al.
# Submitted via: ExactAudioCopy v0.90a11
#
DISCID=67095708
DTITLE=Lawrence Wright and The Outlets - K C Style Hot and Spicy
DYEAR=1900
DGENRE=
TTITLE0=Lawrence   Intro
TTITLE1=I'm In Love With You Baby
TTITLE2=Duck's Lump-O-Lump
TTITLE3=Blue Tears
TTITLE4=Walking Song
TTITLE5=Ssatisfy Suzie
TTITLE6=Hot and Spicy
TTITLE7=Gots Sauce In My Shirt
EXTD=
EXTT0=
EXTT1=
EXTT2=
EXTT3=
EXTT4=
EXTT5=
EXTT6=
EXTT7=
PLAYORDER=
